<svg width="26" height="26" viewBox="0 0 26 26" fill="none" xmlns="http://www.w3.org/2000/svg">
<path d="M1 1L25 25M11.6667 6.33333H19.6667C20.3739 6.33333 21.0522 6.61428 21.5523 7.11438C22.0524 7.61448 22.3333 8.29276 22.3333 9V9.66667C22.3333 9.84348 22.4036 10.013 22.5286 10.1381C22.6536 10.2631 22.8232 10.3333 23 10.3333C23.1768 10.3333 23.3464 10.4036 23.4714 10.5286C23.5964 10.6536 23.6667 10.8232 23.6667 11V15C23.6667 15.1768 23.5964 15.3464 23.4714 15.4714C23.3464 15.5964 23.1768 15.6667 23 15.6667C22.8232 15.6667 22.6536 15.7369 22.5286 15.8619C22.4036 15.987 22.3333 16.1565 22.3333 16.3333V17M19.6667 19.6667H5C4.29276 19.6667 3.61448 19.3857 3.11438 18.8856C2.61428 18.3855 2.33333 17.7072 2.33333 17V9C2.33333 8.29276 2.61428 7.61448 3.11438 7.11438C3.61448 6.61428 4.29276 6.33333 5 6.33333H6.33333" stroke="#DA2A2A" stroke-width="2" stroke-linecap="round" stroke-linejoin="round"/>
</svg>
