<svg width="24" height="16" viewBox="0 0 24 16" fill="none" xmlns="http://www.w3.org/2000/svg">
<path d="M5.66992 5.33203V10.6654M9.66992 5.33203V10.6654M13.6699 5.33203V10.6654M17.6699 5.33203V10.6654M4.33659 1.33203H19.0033C19.7105 1.33203 20.3888 1.61298 20.8889 2.11308C21.389 2.61318 21.6699 3.29145 21.6699 3.9987V4.66536C21.6699 4.84218 21.7402 5.01175 21.8652 5.13677C21.9902 5.26179 22.1598 5.33203 22.3366 5.33203C22.5134 5.33203 22.683 5.40227 22.808 5.52729C22.933 5.65232 23.0033 5.82189 23.0033 5.9987V9.9987C23.0033 10.1755 22.933 10.3451 22.808 10.4701C22.683 10.5951 22.5134 10.6654 22.3366 10.6654C22.1598 10.6654 21.9902 10.7356 21.8652 10.8606C21.7402 10.9856 21.6699 11.1552 21.6699 11.332V11.9987C21.6699 12.7059 21.389 13.3842 20.8889 13.8843C20.3888 14.3844 19.7105 14.6654 19.0033 14.6654H4.33659C3.62934 14.6654 2.95107 14.3844 2.45097 13.8843C1.95087 13.3842 1.66992 12.7059 1.66992 11.9987V3.9987C1.66992 3.29145 1.95087 2.61318 2.45097 2.11308C2.95107 1.61298 3.62934 1.33203 4.33659 1.33203Z" stroke="#156FC9" stroke-width="2" stroke-linecap="round" stroke-linejoin="round"/>
</svg>
