<svg width="26" height="25" viewBox="0 0 26 25" fill="none" xmlns="http://www.w3.org/2000/svg">
<path fill-rule="evenodd" clip-rule="evenodd" d="M11.8287 1.08617C12.1363 0.840225 12.5135 0.697363 12.9068 0.677843C13.3001 0.658323 13.6896 0.763136 14.02 0.977416L14.1713 1.08617L19.5613 5.39867C19.8242 5.60885 20.042 5.86998 20.2016 6.1664C20.3612 6.46282 20.4593 6.78842 20.49 7.12367L20.5 7.34992V10.4999H23C23.6307 10.4997 24.2382 10.7379 24.7007 11.1668C25.1632 11.5956 25.4464 12.1835 25.4938 12.8124L25.5 12.9999V22.8749C25.5002 23.2137 25.3752 23.5407 25.1492 23.7931C24.9231 24.0454 24.6118 24.2055 24.275 24.2424L24.125 24.2499H1.875C1.53618 24.2501 1.20922 24.1252 0.956849 23.8991C0.704477 23.673 0.544463 23.3617 0.5075 23.0249L0.5 22.8749V12.9999C0.499801 12.3692 0.738008 11.7617 1.16687 11.2992C1.59573 10.8368 2.18356 10.5535 2.8125 10.5062L3 10.4999H5.5V7.34992C5.49998 7.01327 5.56795 6.68009 5.69983 6.37035C5.83172 6.06062 6.0248 5.78071 6.2675 5.54742L6.43875 5.39742L11.8287 1.08617ZM13 3.34992L8 7.34992V21.7499H18V7.34992L13 3.34992ZM23 12.9999H20.5V21.7499H23V12.9999ZM5.5 12.9999H3V21.7499H5.5V12.9999ZM13 7.99992C13.4925 7.99992 13.9801 8.09691 14.4351 8.28537C14.89 8.47382 15.3034 8.75004 15.6517 9.09826C15.9999 9.44648 16.2761 9.85988 16.4645 10.3149C16.653 10.7698 16.75 11.2575 16.75 11.7499C16.75 12.2424 16.653 12.73 16.4645 13.185C16.2761 13.6399 15.9999 14.0533 15.6517 14.4016C15.3034 14.7498 14.89 15.026 14.4351 15.2145C13.9801 15.4029 13.4925 15.4999 13 15.4999C12.0054 15.4999 11.0516 15.1048 10.3483 14.4016C9.64509 13.6983 9.25 12.7445 9.25 11.7499C9.25 10.7554 9.64509 9.80153 10.3483 9.09826C11.0516 8.395 12.0054 7.99992 13 7.99992ZM13 10.4999C12.6685 10.4999 12.3505 10.6316 12.1161 10.866C11.8817 11.1005 11.75 11.4184 11.75 11.7499C11.75 12.0814 11.8817 12.3994 12.1161 12.6338C12.3505 12.8682 12.6685 12.9999 13 12.9999C13.3315 12.9999 13.6495 12.8682 13.8839 12.6338C14.1183 12.3994 14.25 12.0814 14.25 11.7499C14.25 11.4184 14.1183 11.1005 13.8839 10.866C13.6495 10.6316 13.3315 10.4999 13 10.4999Z" fill="#8E6BD3"/>
</svg>
